<?xml version="1.0" standalone="no"?>
<!DOCTYPE svg PUBLIC "-//W3C//DTD SVG 20010904//EN"
 "http://www.w3.org/TR/2001/REC-SVG-20010904/DTD/svg10.dtd">
<svg version="1.0" xmlns="http://www.w3.org/2000/svg"
 width="65px" height="65px" viewBox="0 0 232.000000 499.000000"
 preserveAspectRatio="xMidYMid meet">

<g transform="translate(0.000000,499.000000) scale(0.100000,-0.100000)"
fill="red" stroke="none">
<path d="M1864 4718 c-137 -144 -271 -286 -297 -315 l-48 -52 -59 -227 c-32
-124 -60 -227 -62 -229 -2 -2 -156 -6 -343 -9 -187 -3 -369 -8 -405 -11 -362
-32 -548 -68 -614 -120 -16 -12 -17 -17 -5 -31 73 -88 566 -145 1194 -139 442
5 763 36 936 91 115 36 128 68 45 105 -82 36 -408 89 -547 89 -25 0 -48 2 -50
5 -8 7 87 381 102 402 13 18 215 232 454 481 50 51 91 102 93 112 2 12 -14 36
-42 65 -77 77 -67 83 -352 -217z m-507 -1019 c20 -20 147 -24 184 -5 20 10 36
13 42 7 15 -15 0 -29 -41 -41 -94 -26 -241 1 -217 40 8 13 18 13 32 -1z"/>
<path d="M2180 3624 c-79 -27 -195 -48 -400 -71 -223 -25 -1031 -26 -1265 0
-194 20 -330 43 -410 68 -32 10 -61 16 -63 14 -3 -3 21 -242 44 -440 23 -202
74 -684 74 -708 0 -41 7 -32 46 64 97 236 293 439 426 439 93 0 208 -94 208
-170 0 -25 -46 -74 -60 -65 -6 4 -29 31 -51 61 -51 70 -77 80 -132 56 -131
-59 -290 -326 -329 -553 -22 -128 20 -187 103 -143 43 22 132 107 179 169 21
29 48 85 64 135 32 96 62 134 99 121 36 -13 35 -82 -3 -188 -18 -48 -58 -175
-90 -282 -33 -106 -67 -202 -76 -212 -39 -43 -81 -7 -69 59 6 32 46 165 63
211 3 9 -23 -10 -57 -42 -98 -90 -171 -121 -247 -103 -29 6 -31 5 -28 -16 3
-13 18 -165 34 -338 43 -456 32 -408 96 -437 69 -31 248 -76 394 -98 152 -23
515 -31 675 -15 214 21 475 82 550 128 l29 18 47 408 c26 224 50 430 53 458
l7 51 -52 -47 c-105 -94 -196 -130 -263 -102 -70 29 -60 79 41 206 93 118 107
140 95 152 -16 16 -65 0 -105 -33 -83 -69 -173 -232 -263 -479 -21 -58 -46
-117 -56 -131 -19 -29 -57 -41 -82 -27 -36 20 -19 79 98 332 l36 78 -37 -30
c-106 -83 -210 -98 -234 -35 -9 23 -11 24 -27 11 -29 -26 -82 -49 -113 -50
-44 -1 -69 27 -69 79 l0 43 -37 -41 c-48 -54 -104 -81 -166 -82 -43 0 -54 4
-74 27 -32 37 -30 79 11 201 49 146 100 243 131 251 31 8 53 0 62 -21 3 -9
-17 -64 -46 -125 -50 -104 -74 -201 -55 -213 22 -13 72 10 115 53 43 43 74 98
147 263 17 36 27 47 45 47 28 0 47 -17 47 -44 0 -11 -21 -71 -46 -133 -25 -62
-46 -132 -47 -155 -2 -42 -1 -43 27 -41 49 4 92 41 110 97 9 28 69 184 134
346 107 267 120 296 145 305 40 13 62 -4 61 -46 -1 -19 -56 -166 -124 -328
-123 -296 -147 -371 -117 -371 21 0 116 66 177 124 37 34 56 62 66 95 19 64
56 125 77 129 31 6 50 -18 43 -56 l-5 -33 39 35 c79 71 151 92 210 61 74 -38
46 -130 -89 -290 -28 -32 -51 -63 -51 -67 0 -34 102 30 206 129 l50 48 43 405
c24 223 56 518 71 655 15 138 26 250 26 250 -1 0 -30 -9 -66 -21z"/>
<path d="M340 1187 c0 -3 31 -58 69 -123 l69 -119 16 -240 c10 -132 22 -307
27 -390 10 -148 11 -150 40 -176 37 -32 128 -64 249 -86 134 -25 525 -25 660
0 123 23 213 53 249 83 33 28 34 33 56 459 4 66 10 176 15 245 l8 125 65 110
c36 61 64 111 63 112 -1 1 -31 -7 -66 -18 -87 -27 -271 -65 -400 -81 -134 -16
-534 -16 -660 0 -170 23 -373 67 -442 97 -10 4 -18 5 -18 2z"/>
</g>
</svg>
